<?xml version="1.0" standalone="no"?>
<!DOCTYPE svg PUBLIC "-//W3C//DTD SVG 20010904//EN"
 "http://www.w3.org/TR/2001/REC-SVG-20010904/DTD/svg10.dtd">
<svg version="1.0" xmlns="http://www.w3.org/2000/svg"
 width="500.000000pt" height="500.000000pt" viewBox="0 0 500.000000 500.000000"
 preserveAspectRatio="xMidYMid meet">

<g transform="translate(0.000000,500.000000) scale(0.100000,-0.100000)"
fill="#000000" stroke="none">
<path d="M495 3271 c-54 -25 -92 -62 -115 -113 -19 -41 -20 -74 -20 -804 l0
-760 25 -51 c26 -51 72 -91 128 -112 20 -8 636 -11 1984 -11 l1957 0 43 21
c53 25 106 86 121 138 17 55 17 1497 0 1552 -15 52 -68 113 -121 138 l-43 21
-1960 0 c-1882 0 -1961 -1 -1999 -19z m3995 -33 c26 -14 57 -41 75 -66 l30
-44 0 -773 0 -773 -30 -44 c-17 -23 -49 -53 -70 -65 l-40 -23 -1972 3 -1972 2
-27 21 c-15 11 -42 37 -58 58 l-31 38 -3 769 c-2 742 -2 770 17 807 22 42 52
72 96 95 27 15 222 16 1985 17 l1956 0 44 -22z"/>
<path d="M492 2953 l3 -148 238 -3 237 -2 0 -380 0 -380 175 0 175 0 0 380 0
380 233 2 232 3 3 148 3 147 -651 0 -651 0 3 -147z"/>
</g>
</svg>
